<?xml version="1.0" encoding="iso-8859-1"?>
<!-- Uploaded to: SVG Repo, www.svgrepo.com, Generator: SVG Repo Mixer Tools -->
<!DOCTYPE svg PUBLIC "-//W3C//DTD SVG 1.1//EN" "http://www.w3.org/Graphics/SVG/1.1/DTD/svg11.dtd">
<svg fill="#000000" height="800px" width="800px" version="1.1" id="Capa_1" xmlns="http://www.w3.org/2000/svg" xmlns:xlink="http://www.w3.org/1999/xlink" 
	 viewBox="0 0 351.724 351.724" xml:space="preserve">
<g>
	<path d="M163.982,307.544h-21.477c-1.626,0-3,1.374-3,3v14.442c0,1.626,1.374,3,3,3h21.477c1.626,0,3-1.374,3-3v-14.442
		C166.982,308.918,165.608,307.544,163.982,307.544z"/>
	<path d="M309.852,133.145c-1.179,0-2.277,0.927-2.574,1.199l-48.162,36.881c-1.729,1.396-4.002,2.166-6.402,2.166
		c-2.399,0-4.674-0.769-6.423-2.181l-49.449-37.92c-0.127-0.103-0.802-0.614-1.61-0.614c-0.761,0-2.037,0.408-2.037,3.142v74.796
		c0,3.309,2.691,6,6,6h44.398v64.516c0,2.75-2.25,5-5,5H67.896c-2.75,0-5-2.25-5-5V44.646c0-2.75,2.25-5,5-5h170.696
		c2.75,0,5,2.25,5,5v78.916h-40.863c-1.363,0-2.975,0.153-3.35,1.343c-0.36,1.146,0.811,2.073,1.154,2.313l50.802,37.783
		c0.44,0.355,1.052,0.408,1.378,0.408c0.325,0,0.936-0.053,1.345-0.383l49.742-36.926c0.476-0.382,1.988-1.736,1.503-3.114
		c-0.45-1.276-2.113-1.424-3.325-1.424H266.92c0.037-0.495,0.076-0.99,0.076-1.494V20c0-11.028-8.972-20-20-20H59.492
		c-11.028,0-20,8.972-20,20v311.724c0,11.028,8.972,20,20,20h187.503c11.028,0,20-8.972,20-20V216.614h39.235c3.309,0,6-2.691,6-6
		v-73.629C312.231,133.644,310.74,133.145,309.852,133.145z M137.368,15.988h31.751c2.761,0,5,2.239,5,5s-2.239,5-5,5h-31.751
		c-2.761,0-5-2.239-5-5S134.607,15.988,137.368,15.988z M176.982,324.987c0,7.168-5.831,13-13,13h-21.477c-7.169,0-13-5.832-13-13
		v-14.442c0-7.168,5.831-13,13-13h21.477c7.169,0,13,5.832,13,13V324.987z"/>
	<path d="M167.073,141.042h-24.794c-3.866,0-7,3.134-7,7c0,3.866,3.134,7,7,7h24.794c3.866,0,7-3.134,7-7
		C174.073,144.175,170.939,141.042,167.073,141.042z"/>
	<path d="M167.073,166.247h-42.47c-3.866,0-7,3.134-7,7s3.134,7,7,7h42.47c3.866,0,7-3.134,7-7S170.939,166.247,167.073,166.247z"/>
	<path d="M167.073,191.451H108.89c-3.866,0-7,3.134-7,7c0,3.866,3.134,7,7,7h58.183c3.866,0,7-3.134,7-7
		C174.073,194.585,170.939,191.451,167.073,191.451z"/>
</g>
</svg>